<svg width="117" height="110" viewBox="0 0 117 110" fill="none" xmlns="http://www.w3.org/2000/svg">
<path d="M22.3206 22.6332C22.3775 22.6142 22.5103 22.6331 22.6241 22.5952C23.3451 22.4812 23.7436 22.7278 23.7627 23.5437C23.8197 24.0939 23.7819 24.739 23.6681 25.3462C23.2889 26.8642 22.9286 28.439 22.5494 29.957C22.0753 31.7595 21.4495 33.4862 20.8426 35.2699C20.3306 36.7689 19.7616 38.2869 19.2116 39.8618C18.8702 40.9243 18.3961 41.968 17.9978 43.0495C17.6374 44.0552 17.2202 45.0798 16.8598 46.0855C16.4426 47.1101 16.0253 48.1348 15.6839 49.1974C14.565 52.6697 13.3134 56.3128 11.9478 59.8042C11.8719 59.956 11.853 60.0888 11.853 60.2786C11.8341 60.4114 11.872 60.5252 12.0238 60.6011C12.1946 60.7339 12.1946 60.5441 12.3084 60.5062C12.6499 60.2026 13.1053 60.2404 13.4279 60.6388C13.5797 60.9044 13.7505 61.227 13.9024 61.4926C14.1111 61.9289 14.3768 61.9668 14.7752 61.6442C15.2874 61.2836 15.5909 60.6764 15.9323 60.1831C16.4635 59.3102 17.1274 58.646 17.8293 57.9059C17.9242 57.811 18.076 57.6972 18.1898 57.8489C18.2847 57.9438 18.1329 58.0577 18.0191 58.0956C17.2603 59.0444 16.7102 60.0501 16.0273 61.0369C15.8377 61.4164 15.5721 61.7579 15.2875 62.0426C14.5287 62.6119 13.6558 62.4603 13.2383 61.5875C13.1054 61.3788 13.0674 61.0753 12.8777 61.0753C12.6121 61.0374 12.6121 61.4169 12.4793 61.5877C12.3086 61.8343 12.2328 62.1759 12.2139 62.4984C12.2139 62.6882 12.2329 62.9348 11.9103 62.9159C11.6637 62.9349 11.6067 62.7642 11.5308 62.5365C11.2649 60.9807 11.1509 59.5008 11.2645 57.9449C11.34 55.706 11.6243 53.524 11.7757 51.323C12.0031 49.16 12.2683 46.921 12.6285 44.777C12.856 43.5626 13.2163 42.3672 13.5197 41.1908C14.1265 39.0277 14.8092 36.9025 15.6248 34.7963C16.4593 32.7471 17.2179 30.6598 18.2042 28.6864C19.0578 26.8838 20.0062 25.176 21.1064 23.5441C21.4099 23.1266 21.8273 22.8609 22.3206 22.6332ZM11.8337 58.1345C11.9475 58.0966 11.9855 58.0207 12.0234 57.9448C12.6682 56.275 13.37 54.5862 13.9389 52.8785C14.8682 50.1651 15.7596 47.5277 16.7838 44.9091C18.1872 41.3419 19.5907 37.7746 20.7855 34.1504C21.601 31.6648 22.4165 29.1791 22.9473 26.5986C23.1559 25.517 23.4403 24.4734 23.3453 23.4299C23.3072 22.9366 22.9847 22.7279 22.5293 22.8798C22.1309 23.0127 21.7704 23.2594 21.5049 23.601C20.6512 24.8344 19.9494 26.1437 19.2476 27.453C18.1854 29.3884 17.4078 31.4188 16.5732 33.468C15.8904 35.024 15.3594 36.6558 14.8094 38.2307C14.2974 39.7297 14.051 41.2666 13.6148 42.8035C12.8563 45.46 12.61 48.1353 12.4018 50.9245C12.2313 52.8788 11.947 54.8711 11.8335 56.8064C11.8525 57.2428 11.8147 57.6982 11.8337 58.1345ZM26.7096 55.0708C26.3681 55.1847 26.1594 55.3175 25.9128 55.5263C24.5659 56.7977 22.9153 57.7277 21.3216 58.6387C20.7904 58.9423 20.2023 59.0753 19.6709 58.62C19.5001 58.4872 19.4622 58.5631 19.3863 58.7149C19.2725 58.9426 19.1018 59.1893 19.007 59.4739C18.7035 59.8914 18.343 59.9483 17.9635 59.5689C17.3942 58.9998 17.3181 58.2029 17.9442 57.6146C18.1339 57.4249 18.3046 57.1782 18.4943 56.9884C18.684 56.7987 18.8738 56.7986 19.0445 56.9314C19.2722 57.0452 19.3671 57.1401 19.1205 57.3488C18.7411 57.5386 18.5324 57.8612 18.2478 58.1458C18.172 58.2976 18.0961 58.4495 18.0961 58.6392C18.1531 58.8099 18.21 58.9807 18.3428 58.9996C18.5705 59.1135 18.5515 58.8668 18.5895 58.7909C18.9309 58.2975 19.1965 57.7662 19.481 57.2918C19.5948 57.0641 19.6707 56.9123 19.9553 57.0072C20.164 57.064 20.221 57.2348 20.183 57.5004C20.1451 57.7661 19.9934 58.0697 20.2401 58.2404C20.5437 58.3921 20.8093 58.2403 21.0749 58.0885C22.8203 57.2534 24.414 56.1526 26.0266 55.1088C26.2353 54.976 26.406 54.7293 26.6906 55.0139L26.7096 55.0708ZM27.7759 58.5733C26.8653 58.8771 26.0683 58.3839 26.0681 57.4352C26.068 56.6762 26.1438 55.9552 26.1627 55.2532C26.2006 54.9876 26.2575 54.7788 26.58 54.7978C26.7887 54.8547 26.8077 55.1013 26.7509 55.31C26.751 56.069 26.5803 56.8849 26.7133 57.6628C26.7703 58.213 26.998 58.3268 27.5672 58.137C28.1174 57.8902 28.5157 57.3779 28.9331 56.9224C29.4453 56.3721 29.3314 56.2204 29.6539 55.4803C29.7677 55.2526 29.7866 55.1198 29.483 54.9681C29.1794 54.8163 29.0845 54.5317 29.2173 54.1712C29.369 53.8676 29.5018 53.5071 29.6345 53.1466C29.7293 52.862 29.919 52.6722 30.2606 52.748C30.6401 52.748 30.8488 52.9946 30.8489 53.3741C30.9058 53.5448 30.9058 53.7346 30.83 53.8864C30.811 54.2089 30.9628 54.2848 31.1715 54.1519C31.6458 53.8673 32.1391 53.6395 32.6703 53.3358C33.4292 52.9562 34.1691 52.5197 34.928 52.1401C35.0418 52.1022 35.1936 51.9883 35.2316 52.1021C35.3644 52.3108 35.1178 52.3299 35.0609 52.3488C33.619 53.3357 32.1772 54.3225 30.6404 55.0248C30.3558 55.1197 30.2989 55.3284 30.1851 55.5561C29.5971 56.8275 29.4265 57.4536 28.2692 58.3456C28.1744 58.4405 28.0036 58.4974 27.7759 58.5733ZM29.9952 54.6075C30.2229 54.5316 30.4884 53.4311 30.3745 53.2793C30.2796 53.1844 30.2227 53.2034 30.1279 53.2983C29.9192 53.6209 29.7295 54.0004 29.6727 54.3988C29.6727 54.5886 29.8245 54.6644 29.9952 54.6075ZM42.2547 49.7599C41.0406 50.8605 39.7505 51.9233 38.4225 52.8722C37.8913 53.1758 37.436 53.5174 36.9048 53.8211C36.4115 54.0488 35.9182 54.0869 35.3869 54.0111C34.8746 53.9922 34.6279 53.6317 34.4191 53.1953C34.3812 53.0815 34.4001 52.9487 34.4381 52.8728C34.6846 52.2846 34.9881 51.6774 35.4624 51.2029C35.7659 50.7855 36.2402 50.6905 36.6008 51.013C36.8854 51.2976 36.8855 51.6771 36.582 52.0945C36.2595 52.4551 35.8611 52.7777 35.4627 53.1003C35.3488 53.1383 35.1781 53.1952 35.2161 53.3091C35.273 53.4798 35.4248 53.5557 35.5576 53.5746C35.9561 53.6315 36.3545 53.4986 36.677 53.3278C37.7015 52.7964 38.6122 52.1132 39.5797 51.411C40.3006 50.9176 41.0595 50.3482 41.7804 49.8548C41.9322 49.741 42.046 49.703 42.2357 49.703L42.2547 49.7599ZM67.7306 41.39C67.3891 41.5039 67.1804 41.6367 66.9338 41.8455C65.5869 43.1169 63.9363 44.0469 62.3426 44.9579C61.8114 45.2615 61.2233 45.3944 60.6919 44.9392C60.5211 44.8064 60.4832 44.8823 60.4073 45.0341C60.2935 45.2618 60.1228 45.5085 60.028 45.7931C59.7245 46.2105 59.364 46.2675 58.9844 45.8881C58.4152 45.319 58.3391 44.5221 58.9652 43.9338C59.1549 43.7441 59.3256 43.4974 59.5153 43.3076C59.705 43.1178 59.8948 43.1178 60.0655 43.2506C60.2932 43.3644 60.3881 43.4593 60.1415 43.668C59.7621 43.8578 59.5534 44.1804 59.2688 44.465C59.193 44.6168 59.1171 44.7686 59.1171 44.9584C59.1741 45.1291 59.231 45.2999 59.3638 45.3188C59.5915 45.4326 59.5725 45.186 59.6105 45.1101C59.9519 44.6167 60.2175 44.0854 60.502 43.611C60.6158 43.3833 60.6917 43.2315 60.9763 43.3264C61.185 43.3832 61.242 43.554 61.204 43.8196C61.1661 44.0853 61.0144 44.3889 61.2611 44.5596C61.5647 44.7113 61.8303 44.5595 62.0959 44.4077C63.8413 43.5726 65.435 42.4718 67.0476 41.428C67.2562 41.2952 67.427 41.0485 67.7116 41.3331L67.7306 41.39ZM68.2082 41.6102C68.4928 41.3255 68.7015 41.0029 69.0429 40.6993C69.1378 40.6044 69.2896 40.4906 69.4603 40.4336C69.9726 40.2628 70.1244 40.3386 70.2762 40.794C70.4471 41.3063 70.504 41.2873 70.9404 41.0785C71.5285 40.7558 72.0028 40.2814 72.4201 39.826C72.5529 39.6552 72.7236 39.4085 72.9513 39.5223C73.1221 39.6551 72.9514 39.9018 72.8186 40.0726C72.3254 40.6798 71.7752 41.306 71.0543 41.6097C70.4662 41.9324 70.0108 41.7048 69.7071 41.1735C69.5742 40.9649 69.4794 41.0597 69.3276 41.1736C68.9292 41.4962 68.7016 41.9516 68.3981 42.3691C68.2464 42.6727 68.0187 42.9384 67.867 43.242C67.7342 43.4128 67.5065 43.4887 67.2788 43.3749C67.0511 43.2611 67.0511 43.0713 67.108 42.8626C67.2597 42.3693 67.4304 41.9329 67.3164 41.4016C67.2974 41.155 67.62 40.9841 67.8666 40.9651C68.1133 40.9461 68.1323 41.1928 68.1323 41.3825C68.1513 41.4394 68.1134 41.5153 68.2082 41.6102ZM80.3228 37.0006C80.0383 37.475 79.7158 37.8356 79.3933 38.1961C78.4448 39.3347 76.9841 41.0236 76.0545 42.2191C75.9787 42.3709 75.8459 42.5417 75.8459 42.7314C75.9221 44.2872 75.7515 45.8621 75.6379 47.4179C75.5622 48.5184 75.5055 49.6758 75.24 50.7763C74.9367 52.3322 74.6523 53.945 74.0644 55.4061C73.7799 56.2599 73.6282 57.1328 73.2679 57.9487C72.585 59.3149 71.9402 60.7949 71.2573 62.1611C70.7452 63.0909 70.252 64.0776 69.7399 65.0074C69.1898 66.0131 68.5448 66.924 67.8999 67.8348C66.7048 69.5616 65.4338 71.2504 63.8972 72.7117C63.2712 73.2999 62.6261 73.8313 61.8862 74.2678C60.3495 75.1598 59.0781 74.3821 58.7174 72.9212C58.3187 71.3464 58.641 69.8475 58.9064 68.3675C59.1908 66.9444 59.7029 65.6351 60.1391 64.2879C60.8977 62.2007 62.0169 60.2463 63.0601 58.2539C64.0843 56.2045 65.4312 54.3639 66.835 52.5042C68.7509 49.9046 70.8376 47.4376 72.9243 44.9707C73.5314 44.3255 74.1194 43.6234 74.7834 42.9592C75.068 42.6746 75.2007 42.3141 75.1248 41.8967C74.916 41.2706 74.84 40.6634 74.7071 40.0753C74.6691 39.9614 74.6691 39.7717 74.4793 39.7717C74.3655 39.8097 74.3466 39.9425 74.3276 40.0753C74.2897 40.1512 74.2517 40.2271 74.2707 40.284C74.1569 40.7015 74.0432 41.1189 73.5309 41.1C72.9617 41.1001 72.5632 40.8535 72.3923 40.3413C72.2974 40.2464 72.2405 40.0756 72.2595 39.9428C72.1645 39.6582 72.2404 39.5064 72.544 39.4684C72.7906 39.4494 72.9994 39.5063 72.9804 39.8289C72.9994 40.0755 72.9995 40.455 73.2651 40.4929C73.5308 40.5308 73.5117 40.0944 73.5686 39.8857C73.7962 39.4303 73.9669 38.9939 74.1376 38.5575C74.1945 38.3487 74.2894 38.2539 74.4981 38.3107C74.6878 38.3107 74.8396 38.3866 74.9156 38.6143C75.2192 39.3352 75.466 40.0751 75.542 40.872C75.561 40.9289 75.561 40.9289 75.561 40.9289C75.637 41.1566 75.618 41.4792 75.8457 41.593C76.1304 41.6878 76.2252 41.4032 76.3959 41.1565C77.8376 39.4107 78.919 38.2911 80.0382 37.0956C80.0761 37.0197 80.1331 37.0007 80.3228 37.0006ZM60.7668 74.3249C61.6016 73.9833 62.1707 73.6037 62.7588 73.0913C63.6694 72.2184 64.5611 71.2885 65.3578 70.2638C66.477 68.8786 67.4634 67.4744 68.4309 66.0132C69.6069 64.2295 70.5553 62.332 71.4468 60.4535C72.1107 59.0304 72.7935 57.6641 73.2296 56.1272C73.7986 54.4195 74.1968 52.7687 74.557 51.0041C74.8983 49.3723 75.0688 47.7975 75.1444 46.1278C75.2012 45.3499 75.3149 44.5529 75.2389 43.7561C75.2009 43.6422 75.2768 43.4904 75.0681 43.4335C74.9353 43.4146 74.9163 43.5474 74.8025 43.5854C73.2659 45.2363 71.8431 47.039 70.3445 48.8038C68.9407 50.4737 67.6887 52.2195 66.3988 54.0412C65.3365 55.4074 64.3691 56.8686 63.5534 58.4056C62.7568 59.9995 61.9032 61.6124 61.1256 63.2632C60.4617 64.6863 60.1394 66.1853 59.6653 67.6084C59.248 68.8228 59.1723 70.113 59.0777 71.3463C59.0019 72.0673 59.1728 72.7693 59.3816 73.3954C59.6283 74.1354 60.2166 74.5717 60.7668 74.3249ZM36.5162 74.5276C36.3834 74.5087 36.3075 74.6605 36.2127 74.7554C35.8712 75.059 35.3399 75.1729 34.8845 74.9453C34.6568 74.8315 34.5999 74.6608 34.5809 74.4141C34.5998 73.9018 34.7515 73.4085 34.9601 72.8961C35.1119 72.5925 35.4344 72.4217 35.8139 72.6114C36.0606 72.7821 36.1744 72.7442 36.2692 72.4595C36.2692 72.2698 36.3071 72.0042 36.5727 72.0421C36.8194 72.0231 36.9333 72.1748 37.0661 72.3835C37.3318 72.8009 37.2939 73.2563 37.332 73.7496C37.1804 75.1916 36.7632 76.5957 36.4788 78.0188C36.4599 78.1516 36.384 78.3034 36.384 78.4932C36.6117 78.4172 36.6686 78.2085 36.7444 78.0567C37.8446 75.8556 39.1724 73.7683 40.3674 71.662C40.4812 71.4343 40.6709 71.2445 40.9555 71.1496C40.5192 71.9276 40.1399 72.6866 39.7036 73.4646C39.1156 74.5462 38.5276 75.6278 37.9396 76.7094C37.4274 77.6392 36.9153 78.569 36.4031 79.4988C36.1566 79.8972 36.0618 80.3716 36.0429 80.8839C36.005 81.1495 35.7014 81.3773 35.9102 81.6239C36.043 81.8326 36.3656 81.8515 36.5364 81.9843C37.2574 82.4395 37.6939 82.9897 37.9217 83.8625C38.4343 85.589 38.3966 87.3725 38.3779 89.213C38.3592 90.6739 38.1886 92.059 37.8284 93.4442C37.4871 95.076 37.0699 96.6698 36.5958 98.2827C36.1786 99.6868 35.7424 101.034 35.2683 102.457C34.8321 103.615 34.4718 104.81 33.9028 105.948C33.6752 106.404 33.4475 106.859 32.9353 107.03C32.3282 107.296 31.7399 107.049 31.645 106.385C31.4551 105.437 31.6257 104.431 31.7963 103.425C32.2133 101.072 32.7632 98.7386 33.1803 96.3858C33.5783 93.5966 33.9194 90.8264 34.2605 88.0562C34.5258 86.1968 34.8291 84.4511 35.1134 82.6486C35.1513 82.3829 35.36 82.0604 35.0754 81.9655C34.7718 81.8138 34.7149 82.2123 34.5252 82.402C33.8802 83.1231 33.3111 83.8822 32.4954 84.4705C32.2297 84.6223 32.0211 84.7551 31.7175 84.7931C31.4518 84.7552 31.338 84.6035 31.5087 84.3568C32.3244 83.389 32.9504 82.2315 34.2215 81.6811C34.563 81.5672 34.6768 81.1497 34.9614 80.8651C35.4166 80.3338 35.7391 79.7835 35.8149 79.0625C36.0424 77.6584 36.2698 76.2543 36.5732 74.8881C36.5921 74.7553 36.6111 74.6225 36.5162 74.5276ZM37.4094 83.6538C37.2765 83.2554 36.9349 82.6104 36.2707 82.1361C35.9482 81.9275 35.7774 81.9844 35.7205 82.3829C35.3792 83.8249 35.1897 85.3428 34.9813 86.8038C34.6969 88.6064 34.4126 90.4089 34.1852 92.1925C33.844 94.3935 33.6167 96.5565 33.2186 98.7765C32.8584 100.541 32.4792 102.249 32.2328 103.975C32.1191 104.772 32.0623 105.55 32.1193 106.29C32.1193 106.48 32.1763 106.651 32.3281 106.727C32.5368 106.783 32.6316 106.689 32.7834 106.575C32.9921 106.442 33.1628 106.195 33.2766 105.968C33.7129 105.19 34.0733 104.374 34.3578 103.52C35.2302 101.015 36.0266 98.4725 36.6903 95.9109C37.5057 93.0458 38.0176 90.2186 37.9602 87.2018C37.9221 86.1393 37.865 85.0199 37.4094 83.6538ZM35.5675 74.5278C35.6814 74.4898 35.7762 74.3949 35.8521 74.2431C35.9279 73.9016 35.9658 73.636 36.0607 73.3513C36.1175 73.1426 36.0796 73.0288 35.9468 73.0098C35.738 72.9529 35.6052 72.934 35.4724 73.1048C35.3587 73.5222 35.2259 73.8827 35.2449 74.3191C35.245 74.5089 35.3399 74.6037 35.5675 74.5278ZM44.159 72.6744C43.476 72.9022 42.8499 72.7316 42.4513 72.1055C42.3185 71.8968 42.2995 72.0296 42.2047 72.1245C41.9391 72.4661 41.6735 72.8076 41.351 73.1682C41.1424 73.4908 40.8009 73.6047 40.3834 73.4909C40.0988 73.3961 39.9659 73.1874 39.9849 72.8648C40.0797 72.3905 40.2314 71.8971 40.478 71.4986C40.5538 71.3468 40.6297 71.195 40.8574 71.3088C41.0851 71.4227 41.0662 71.5555 40.9524 71.7832C40.8955 71.9919 40.8006 72.2765 40.6868 72.5042C40.6679 72.637 40.592 72.7888 40.7438 72.8647C40.8956 72.9406 40.9146 72.8078 41.0094 72.7129C41.4837 72.2385 41.7492 71.7072 42.1286 71.1379C42.3183 70.9481 42.4891 70.7014 42.6598 70.4547C42.8495 70.265 43.0202 70.208 43.172 70.2839C43.3997 70.3977 43.3429 70.6064 43.267 70.7582C43.1911 71.0998 43.0584 71.4603 43.1154 71.8208C43.1154 72.2003 43.2862 72.333 43.7036 72.2571C44.0641 72.2001 44.3107 71.9914 44.5763 71.8395C45.5249 71.0804 46.3027 70.1885 47.1564 69.3346C47.3081 69.2207 47.4789 68.974 47.5737 69.0689C47.7635 69.2586 47.4979 69.4104 47.3651 69.5812C46.815 70.3972 46.189 71.1752 45.3922 71.8204C45.0507 72.1241 44.6713 72.5036 44.159 72.6744ZM54.7521 66.6749C53.5379 67.7755 52.2479 68.8383 50.9199 69.7872C50.3887 70.0908 49.9334 70.4324 49.4021 70.7361C48.9089 70.9638 48.4156 71.0019 47.8843 70.926C47.372 70.9072 47.1253 70.5467 46.9165 70.1103C46.8785 69.9965 46.8975 69.8637 46.9354 69.7878C47.182 69.1996 47.4855 68.5923 47.9597 68.1179C48.2632 67.7005 48.7376 67.6055 49.0981 67.928C49.3828 68.2126 49.3828 68.5921 49.0793 69.0095C48.7568 69.3701 48.3584 69.6927 47.96 70.0153C47.8462 70.0533 47.6754 70.1102 47.7134 70.224C47.7704 70.3948 47.9222 70.4707 48.055 70.4896C48.4534 70.5465 48.8519 70.4136 49.1744 70.2428C50.1989 69.7114 51.1095 69.0282 52.0771 68.326C52.798 67.8326 53.5568 67.2632 54.2778 66.7698C54.4295 66.6559 54.5434 66.618 54.7331 66.618L54.7521 66.6749ZM52.2377 82.4402C51.327 82.7439 50.8147 82.3455 50.7197 81.4917C50.6247 80.8276 50.7954 80.2015 50.966 79.5753C51.5918 77.2794 52.5781 75.1163 53.8111 73.1238C54.5319 72.0612 55.1768 70.9606 55.8218 69.8601C55.9546 69.6893 55.8976 69.5185 55.8407 69.3478C55.4801 68.6458 55.0815 68.0197 54.5691 67.4316C54.3604 67.185 54.1516 66.9384 54.0567 66.6538C53.6202 65.9139 54.0375 64.8892 54.9292 64.7183C54.9861 64.6993 55.1 64.6614 55.1759 64.6993C55.2897 64.6614 55.3656 64.6993 55.3277 64.7752C55.3656 64.889 55.3087 64.908 55.2518 64.927C55.0241 65.0029 54.8724 65.1168 54.7206 65.2307C54.2084 65.781 54.2274 66.0276 54.6259 66.6537C55.1194 67.3746 55.7835 68.0386 56.1821 68.8544C56.334 69.12 56.4478 68.8923 56.5426 68.7974C57.1876 67.8866 57.7756 66.9947 58.3637 66.1029C58.5913 65.8372 58.8 65.5146 59.0276 65.249C59.1035 65.0972 59.2173 65.0592 59.3122 65.154C59.464 65.2299 59.4261 65.3058 59.4071 65.4386C59.3692 65.5145 59.2743 65.6094 59.2364 65.6853C58.3069 66.8808 57.5291 68.1522 56.6945 69.4425C56.5996 69.5374 56.5238 69.6892 56.5997 69.9169C57.4349 72.0418 57.2075 74.2048 56.4679 76.3489C56.0507 77.5633 55.4816 78.7018 54.8367 79.8024C54.2676 80.7512 53.5468 81.6241 52.6172 82.2504C52.4654 82.3642 52.2946 82.4212 52.2377 82.4402ZM51.2889 81.6814C51.4408 82.3264 51.6495 82.3833 52.1807 82.0797C52.655 81.795 52.9965 81.4914 53.3759 81.1118C54.6469 79.6127 55.5384 77.9239 56.1263 76.0834C56.6194 74.3377 56.8278 72.4972 56.3722 70.7517C56.3152 70.581 56.3911 70.4292 56.1824 70.3723C55.9926 70.3723 55.9737 70.5051 55.8788 70.6C55.158 71.8524 54.3613 73.0668 53.6405 74.3192C52.73 75.9511 51.9713 77.6588 51.4214 79.4235C51.2318 80.1824 51.0232 80.8845 51.2889 81.6814ZM66.2946 62.7621C66.0101 63.616 65.403 64.2612 64.9668 65.0392C64.3408 66.0069 63.7338 67.0316 63.1078 67.9993C62.5767 68.8722 61.9507 69.6502 61.2488 70.3903C60.8124 70.7888 60.2053 70.8648 59.6361 70.6752C59.0099 70.5045 58.6114 70.0682 58.4595 69.4231C58.2696 68.2847 58.4022 67.1652 58.6677 66.0647C59.3123 62.8771 60.3743 59.8031 61.4554 56.7862C61.5122 56.5774 61.645 56.4067 61.4742 56.2739C61.3794 56.179 61.1707 56.3119 60.9999 56.3688C60.0703 56.8054 59.0458 57.147 58.0592 57.6026C56.1809 58.4187 54.3596 59.2159 52.5003 60.089C50.3944 61.1708 48.2505 62.1388 46.1256 63.1637C45.1581 63.6762 44.1715 64.1317 43.09 64.3026C42.8623 64.3785 42.5398 64.3596 42.3121 64.2458C42.2172 64.151 42.0844 64.132 42.1033 63.9992C42.1413 63.9233 42.2551 63.8853 42.331 63.9233C42.9002 63.7334 43.4504 63.4867 43.9816 63.3728C45.8979 63.0499 47.4915 61.9492 49.256 61.171C51.6844 60.1081 54.0559 58.8744 56.5413 57.7925C58.2109 57.1092 59.8805 56.4259 61.588 55.6667C61.8157 55.5908 61.9485 55.42 62.0053 55.2113C62.4036 54.1297 62.8778 53.0861 63.2761 52.0045C63.5226 51.4163 63.7692 50.8281 64.0158 50.2399C64.0347 50.107 64.0727 50.0311 64.1675 49.9362C64.2813 49.7085 64.49 49.5757 64.7746 49.6705C65.0403 49.7084 65.0024 49.9741 65.0214 50.2207C64.9076 50.8279 64.737 51.4541 64.5473 52.0233C64.3008 52.8013 63.9973 53.5982 63.7508 54.3762C63.6559 54.471 63.5801 54.6228 63.6749 54.7177C63.7888 54.8695 63.9406 54.7556 64.0544 54.7176C66.2173 53.9963 68.4181 53.1991 70.6 52.5346C73.1234 51.7563 75.7416 51.0729 78.3979 50.693C78.8343 50.6739 79.1948 50.6169 79.7071 50.8256C79.1189 50.9585 78.5497 50.9586 78.0754 51.0535C76.0642 51.4713 74.0721 51.9459 72.1179 52.5344C70.5052 53.009 68.9304 53.4077 67.3557 53.9961C66.1604 54.3947 64.9842 54.8503 63.7889 55.2489C63.3904 55.3818 63.1628 55.6475 63.049 56.0649C62.4421 57.6588 61.8352 59.2527 61.1524 60.8086C60.6593 61.9851 60.0713 63.0667 59.654 64.281C59.161 65.837 58.8197 67.4688 58.9528 69.1953C58.9908 69.6886 59.2565 70.106 59.7498 70.2577C60.3191 70.4474 60.7554 70.2386 61.1348 69.8591C61.7229 69.157 62.292 68.3979 62.8611 67.6389C63.9423 65.9501 64.9667 64.47 66.029 62.9139C66.0669 62.838 66.1618 62.7432 66.2946 62.7621ZM64.547 50.3157C64.3573 50.3157 64.3384 50.4485 64.3004 50.5244C64.0539 51.1126 63.7504 51.7198 63.5228 52.365C63.2193 53.1619 62.8779 54.0348 62.5935 54.8886C62.5745 55.0214 62.4797 55.1163 62.6315 55.1922C62.7833 55.2681 62.8781 55.1732 62.9161 55.0973C63.0109 55.0024 63.0488 54.9265 63.0868 54.8506C63.542 53.5603 64.1299 52.289 64.4523 50.9798C64.5092 50.771 64.623 50.5433 64.547 50.3157ZM61.1142 59.3666C61.6643 58.3609 62.0626 57.2794 62.4798 56.2547C62.5557 56.1029 62.6885 55.9322 62.5367 55.8563C62.309 55.7425 62.1952 55.9702 62.1193 56.122C62.0814 56.1979 62.1004 56.2548 62.0624 56.3307C61.7021 57.3364 61.3418 58.342 61.1142 59.3666ZM66.2945 62.3826C66.3894 62.6672 66.5223 62.8759 66.5792 63.0467C66.6172 63.3502 66.5224 63.6349 66.5604 63.9384C66.5415 64.261 66.7122 64.3938 66.9589 64.185C67.7747 63.5967 68.5145 62.9705 69.2544 62.3442C69.5579 62.1165 69.7097 61.8129 69.9563 61.6041C70.0512 61.5093 70.2409 61.5092 70.3358 61.4144C70.3547 61.4713 70.3737 61.5282 70.3927 61.5851C70.2599 61.7559 70.1271 61.9267 69.9754 62.0405C69.2734 62.7806 68.5146 63.5397 67.7937 64.2229C67.4522 64.5265 67.0918 64.7732 66.5605 64.6974C66.2949 64.6595 66.0482 64.4888 65.9912 64.1283C66.0291 63.6729 66.048 63.1606 66.0859 62.7052C66.1238 62.6293 66.1807 62.6103 66.2945 62.3826ZM66.3702 60.9027C66.3512 60.656 66.2752 60.4284 66.2562 60.1817C66.2372 60.1248 66.408 60.0678 66.4649 60.0489C66.5218 60.0299 66.6167 60.1247 66.5788 60.2006C66.5978 60.4473 66.5409 60.656 66.5599 60.9027C66.503 60.9216 66.4461 60.9406 66.3702 60.9027ZM71.4353 63.1349C71.0369 63.2677 70.4107 63.0971 70.183 62.7935C69.9742 62.5469 69.8603 61.8259 70.012 61.5223C70.0879 61.3705 70.2397 61.2566 70.3915 61.3325C70.6002 61.3894 70.5243 61.5412 70.5054 61.674C70.4295 62.0156 70.3347 62.4899 70.7712 62.6606C71.2076 62.8313 71.4732 62.4897 71.7577 62.2051C71.9474 62.0153 72.0612 61.7876 72.194 61.6168C72.3268 61.4461 72.2888 61.3322 72.0422 61.3512C71.7007 61.4651 71.3022 61.4083 71.1314 61.0857C70.9606 60.7632 71.2262 60.4217 71.4348 60.0991C71.966 59.4159 72.668 59.4348 73.1994 60.0798C73.3132 60.2316 73.4271 60.3834 73.5979 60.3264C74.3188 60.2125 75.0398 59.9088 75.7797 59.662C76.0074 59.5861 76.273 59.4342 76.5576 59.3393C76.6145 59.3203 76.7663 59.2065 76.8232 59.3772C76.8612 59.4911 76.7474 59.529 76.6525 59.6239C75.609 60.0984 74.6604 60.6678 73.6169 60.7628C73.3133 60.8008 73.1426 61.0475 73.0478 61.3321C72.8012 61.9203 72.4408 62.3568 72.0045 62.7553C71.8148 62.9451 71.663 63.0589 71.4353 63.1349ZM77.4817 59.6004C77.7663 59.3157 77.9749 58.9931 78.3164 58.6895C78.4113 58.5946 78.563 58.4807 78.7338 58.4238C79.2461 58.253 79.3979 58.3288 79.5497 58.7842C79.7206 59.2964 79.7775 59.2774 80.2138 59.0687C80.802 58.746 81.2762 58.2716 81.6936 57.8162C81.8264 57.6454 81.9971 57.3987 82.2248 57.5125C82.3956 57.6453 82.2249 57.892 82.0921 58.0628C81.5989 58.67 81.0487 59.2962 80.3278 59.5999C79.7396 59.9226 79.2842 59.6949 78.9806 59.1637C78.8477 58.955 78.7529 59.0499 78.6011 59.1638C78.2027 59.4864 77.9751 59.9418 77.6716 60.3593C77.5198 60.6629 77.2922 60.9285 77.1405 61.2321C77.0077 61.4029 76.78 61.4789 76.5523 61.3651C76.3246 61.2512 76.3246 61.0615 76.3814 60.8528C76.5332 60.3595 76.7039 59.923 76.5899 59.3918C76.5709 59.1451 76.8934 58.9743 77.1401 58.9553C77.3868 58.9363 77.4058 59.1829 77.4058 59.3727C77.4248 59.4296 77.3868 59.5055 77.4817 59.6004ZM79.7518 73.264C78.8411 73.5677 78.3288 73.1694 78.2338 72.3156C78.1388 71.6515 78.3095 71.0253 78.4801 70.3992C79.1059 68.1033 80.0922 65.9401 81.3252 63.9477C82.046 62.8851 82.6909 61.7845 83.3359 60.6839C83.4687 60.5131 83.4117 60.3424 83.3548 60.1716C82.9941 59.4696 82.5956 58.8436 82.0832 58.2555C81.8745 58.0088 81.6657 57.7622 81.5708 57.4776C81.1343 56.7377 81.5516 55.7131 82.4433 55.5422C82.5002 55.5232 82.614 55.4852 82.6899 55.5232C82.8038 55.4852 82.8797 55.5231 82.8417 55.599C82.8797 55.7129 82.8228 55.7319 82.7659 55.7508C82.5382 55.8268 82.3864 55.9406 82.2347 56.0545C81.7225 56.6048 81.7415 56.8515 82.14 57.4775C82.6334 58.1985 83.2976 58.8624 83.6962 59.6782C83.848 59.9439 83.9618 59.7161 84.0567 59.6213C84.7017 58.7104 85.2897 57.8186 85.8777 56.9267C86.1054 56.6611 86.314 56.3385 86.5417 56.0728C86.6176 55.921 86.7314 55.883 86.8263 55.9779C86.9781 56.0538 86.9401 56.1297 86.9212 56.2625C86.8833 56.3384 86.7884 56.4333 86.7505 56.5092C85.8209 57.7046 85.0432 58.976 84.2086 60.2663C84.1137 60.3612 84.0379 60.513 84.1138 60.7407C84.949 62.8656 84.7216 65.0287 83.982 67.1728C83.5648 68.3872 82.9957 69.5257 82.3508 70.6263C81.7817 71.575 81.0609 72.4479 80.1313 73.0742C79.9795 73.1881 79.8087 73.245 79.7518 73.264ZM78.803 72.5052C78.9549 73.1503 79.1636 73.2072 79.6948 72.9035C80.1691 72.6188 80.5106 72.3152 80.89 71.9357C82.161 70.4366 83.0525 68.7478 83.6404 66.9072C84.1335 65.1616 84.3419 63.3211 83.8862 61.5756C83.8293 61.4048 83.9052 61.253 83.6964 61.1961C83.5067 61.1962 83.4878 61.329 83.3929 61.4239C82.6721 62.6762 81.8754 63.8907 81.1546 65.1431C80.2441 66.7749 79.4854 68.4827 78.9355 70.2473C78.7459 71.0063 78.5373 71.7084 78.803 72.5052ZM77.83 35.8291C77.7352 36.1137 77.6214 36.1517 77.3368 36.0569C76.9573 35.8672 76.7106 35.5067 76.7864 34.9755C76.8431 34.0078 77.2604 33.1729 77.6967 32.3949C79.1193 29.8332 80.9025 27.5941 83.1411 25.7722C84.9813 24.273 86.9164 22.8687 89.0603 21.9007C90.597 21.1984 92.1528 20.7428 93.8415 21.0651C95.701 21.3304 96.9534 22.4307 97.7506 24.0623C98.3579 25.5042 98.5289 26.9652 98.4723 28.502C98.4536 30.3425 98.0933 32.1071 97.6193 33.9097C97.0883 35.7312 96.4435 37.5908 95.6469 39.3744C94.4899 42.1637 93.0673 44.9151 91.6257 47.6096C90.5825 49.602 89.5393 51.5944 88.5529 53.5678C88.3822 53.8145 88.3443 54.0801 88.2495 54.3648C88.1546 54.4596 87.9649 54.6494 87.8321 54.6305C87.5096 54.6115 87.6803 54.3648 87.7372 54.1561C88.4579 52.714 89.2356 51.2529 89.9754 49.8677C90.829 48.2548 91.7015 46.6989 92.5551 45.086C94.0535 42.1828 95.4571 39.1847 96.5761 36.0918C97.4295 33.5302 98.1501 30.9497 98.1117 28.1795C98.1114 26.4719 97.8835 24.8402 96.8966 23.3984C95.8338 21.7289 94.2589 21.1789 92.3426 21.312C91.1094 21.407 89.99 21.8436 88.9086 22.394C86.1766 23.6847 83.7482 25.5065 81.6235 27.6698C79.9731 29.3588 78.6073 31.3322 77.64 33.5523C77.4503 33.9318 77.3555 34.4062 77.2607 34.8805C77.1849 35.4118 77.3557 35.7343 77.83 35.8291ZM88.6294 57.021C88.8192 57.2107 88.971 57.2866 88.9899 57.3435C88.971 57.4763 88.8761 57.5712 88.7813 57.6661C88.7433 57.742 88.4967 57.5713 88.4777 57.5143C88.4966 57.3815 88.5915 57.2866 88.6294 57.021Z" fill="#8B3131"/>
</svg>
