<svg width="125" height="100" viewBox="0 0 125 100" fill="none" xmlns="http://www.w3.org/2000/svg">
<path d="M9.93077 69.4114C9.77333 69.4399 9.69461 69.4541 9.53717 69.4826C8.97187 69.5036 8.75745 69.2172 8.98689 68.6879C9.30255 67.7365 9.96159 66.8856 10.7421 66.2566C13.6421 63.862 16.8495 61.8184 20.0067 59.9464C20.5937 59.5963 20.8374 59.1457 21.1598 58.6809C22.8723 56.0134 24.3343 53.3099 25.5962 50.3988C27.1595 46.4575 28.6156 42.373 29.2418 38.1948C29.6377 35.4403 29.7975 32.7285 30.036 30.0025C30.1957 27.2907 30.1051 24.543 29.8428 21.745C29.7439 20.2995 29.7237 18.8398 29.4531 17.3441C29.4388 17.2653 29.4103 17.1079 29.3961 17.0292C29.4966 16.6858 29.2394 16.1632 29.633 16.092C29.9479 16.0351 29.9831 16.6791 30.0401 16.994C30.3459 19.1337 30.5588 21.209 30.6284 23.3914C30.6696 25.4164 30.7108 27.4415 30.5803 29.4162C30.4715 31.0619 30.4272 32.6146 30.3042 34.1815C30.1092 36.2493 29.7568 38.3455 29.3901 40.363C28.9155 43.1317 28.0045 45.7355 27.0147 48.3535C26.025 50.9716 24.9423 53.5251 23.5808 55.8852C23.1579 56.6934 22.6278 57.3584 22.1907 58.0879C22.0617 58.2738 21.8541 58.474 22.0542 58.6817C22.1614 58.8249 22.3691 58.6247 22.5123 58.5175C24.7458 57.3817 26.9793 56.2459 29.227 55.1889C31.6322 54.1034 34.1445 53.161 36.5497 52.0755C38.2748 51.2756 39.9355 50.5686 41.7679 49.9119C44.7668 48.9629 47.7088 47.6989 50.8149 46.893C51.7454 46.6434 52.7688 46.4583 53.6564 45.9725C53.9428 45.758 54.5224 45.8158 54.9302 45.8233C55.0877 45.7948 55.3523 45.9095 55.3808 46.067C55.3591 46.3961 55.1874 46.3459 54.9655 46.4673C50.9004 47.3654 46.9995 48.7215 43.0342 50.1706C39.8275 51.3199 36.6636 52.7053 33.4855 54.0119C31.7461 54.7331 30.0067 55.4543 28.2815 56.2542C26.6494 57.1186 25.0172 57.983 23.385 58.8474C22.6405 59.226 21.896 59.6046 21.2445 60.0476C20.7219 60.3048 20.371 60.6122 20.1273 61.0627C19.1099 62.6289 17.8781 63.9086 16.5533 65.1239C14.8131 66.7395 13.0444 68.1977 10.847 69.0831C10.7038 69.1903 10.5463 69.2188 10.4031 69.326C10.2457 69.3544 10.0882 69.3829 9.93077 69.4114ZM10.146 68.8034C10.3821 68.7607 10.7615 68.6107 11.0621 68.475C12.7731 67.5964 14.2193 66.6031 15.6086 65.2948C16.7115 64.201 17.8001 63.0285 18.7958 61.7914C18.939 61.6842 19.1609 61.5628 19.0395 61.3409C18.8536 61.2119 18.6459 61.4121 18.5027 61.5193C17.1854 62.3267 15.8823 63.2128 14.5793 64.099C13.004 65.2783 11.4003 66.3001 10.1325 67.8302C9.92482 68.0304 9.71714 68.2306 9.69539 68.5597C9.65939 68.8101 9.7666 68.9533 10.146 68.8034ZM40.7602 39.0376C40.2091 39.1373 39.4152 38.7932 39.1723 38.3493C38.9436 37.9842 38.9302 37.011 39.1881 36.6392C39.317 36.4532 39.539 36.3318 39.7249 36.4608C39.9895 36.5755 39.8606 36.7614 39.8103 36.9331C39.6454 37.3694 39.4302 37.9774 39.9737 38.2856C40.5173 38.5938 40.9326 38.1934 41.3622 37.8718C41.6487 37.6574 41.8421 37.3785 42.0498 37.1783C42.2575 36.9781 42.229 36.8207 41.8998 36.7989C41.4275 36.8844 40.9124 36.7337 40.7483 36.2756C40.5841 35.8175 40.9995 35.4172 41.3361 35.0311C42.1668 34.2304 43.0897 34.3886 43.6685 35.3408C43.7899 35.5627 43.9114 35.7846 44.1476 35.7419C45.1207 35.7284 46.1299 35.4646 47.1532 35.2794C47.4681 35.2224 47.8475 35.0725 48.2411 35.0013C48.3198 34.9871 48.5417 34.8656 48.5845 35.1018C48.613 35.2592 48.4555 35.2877 48.3123 35.3949C46.8451 35.823 45.4851 36.3942 44.0898 36.3214C43.682 36.3139 43.4098 36.6071 43.2306 36.9647C42.7935 37.6942 42.2349 38.2017 41.5834 38.6448C41.297 38.8592 41.0751 38.9806 40.7602 39.0376ZM49.5647 39.965C48.3051 40.1928 47.347 39.3906 47.527 38.1385C47.6709 37.1369 47.9079 36.1998 48.0661 35.2768C48.1666 34.9335 48.2813 34.6688 48.7034 34.7551C48.9681 34.8698 48.9463 35.1989 48.8316 35.4636C48.6876 36.4652 48.3075 37.5095 48.3352 38.5614C48.3059 39.2984 48.5848 39.4918 49.372 39.3494C50.145 39.1283 50.768 38.5278 51.4053 38.006C52.1858 37.377 52.0644 37.155 52.6304 36.2396C52.8239 35.9607 52.8741 35.7891 52.5023 35.5311C52.1304 35.2732 52.0592 34.8796 52.3029 34.429C52.5608 34.0572 52.8045 33.6066 53.0481 33.156C53.2273 32.7984 53.5137 32.584 53.9501 32.7489C54.4509 32.8209 54.6795 33.1861 54.6075 33.6869C54.6503 33.923 54.6143 34.1734 54.4853 34.3594C54.3991 34.7815 54.585 34.9104 54.8857 34.7747C55.5657 34.4891 56.2599 34.2822 57.0187 33.9823C58.0923 33.6255 59.1517 33.1899 60.2253 32.8331C60.3827 32.8046 60.6047 32.6832 60.6331 32.8406C60.7688 33.1413 60.4397 33.1195 60.361 33.1337C58.2707 34.1623 56.1804 35.1909 54.0189 35.8258C53.6253 35.897 53.5106 36.1617 53.3172 36.4406C52.2998 38.0067 51.9556 38.8007 50.2589 39.758C50.1157 39.8653 49.8796 39.908 49.5647 39.965ZM53.2467 35.1526C53.5616 35.0956 54.121 33.6936 53.9995 33.4717C53.8923 33.3285 53.8136 33.3427 53.6704 33.4499C53.3338 33.836 53.0114 34.3009 52.8606 34.8159C52.8247 35.0663 53.0106 35.1953 53.2467 35.1526ZM70.3467 31.0832C68.5353 32.3052 66.631 33.4628 64.6981 34.4628C63.9394 34.7627 63.2736 35.127 62.5149 35.4269C61.8206 35.6338 61.1624 35.5903 60.4756 35.3894C59.8031 35.2671 59.546 34.7446 59.3533 34.129C59.3248 33.9716 59.3751 33.7999 59.4396 33.7069C59.8767 32.9775 60.3925 32.2338 61.1085 31.6977C61.5884 31.2044 62.2324 31.1692 62.647 31.6633C62.9686 32.0929 62.8966 32.5937 62.4168 33.087C61.9227 33.5016 61.3356 33.8517 60.7486 34.2018C60.5911 34.2303 60.355 34.273 60.3835 34.4305C60.4262 34.6666 60.6121 34.7956 60.7838 34.8458C61.2989 34.9965 61.8499 34.8968 62.308 34.7327C63.761 34.2259 65.0925 33.4972 66.5028 32.7543C67.5479 32.24 68.6575 31.6327 69.7027 31.1184C69.9246 30.997 70.0821 30.9685 70.3325 31.0045L70.3467 31.0832ZM73.387 34.3542C72.743 34.3894 72.1634 34.3317 71.7488 33.8376C71.32 33.2648 71.5494 32.7355 71.8576 32.192C72.1013 31.7414 72.3307 31.2121 72.6531 30.7472C72.7033 30.5756 72.7678 30.4826 72.6606 30.3394C72.4889 30.2892 72.4245 30.3821 72.36 30.4751C71.6155 30.8537 70.871 31.2323 70.1123 31.5321C69.8116 31.6678 69.5754 31.7106 69.2463 31.6888C68.4951 31.5808 68.2664 31.2157 68.5461 30.5147C69.1054 29.1127 69.9437 27.9042 70.9536 26.7459C71.0181 26.6529 71.1613 26.5457 71.2258 26.4528C71.5122 26.2383 71.7626 26.2743 72.1202 26.4535C72.3848 26.5682 72.3631 26.8974 72.3271 27.1478C72.1404 27.9133 71.8607 28.6142 71.581 29.3152C71.5308 29.4869 71.3231 29.6871 71.5091 29.816C71.6163 29.9592 71.8382 29.8378 71.9814 29.7306C72.504 29.4735 73.0123 29.1376 73.5348 28.8804C73.8355 28.7448 74.1504 28.6878 74.3648 28.9742C74.6579 29.2463 74.4503 29.4465 74.2568 29.7254C73.5333 30.6693 72.917 31.7564 72.4581 32.815C72.3434 33.0796 72.2144 33.2656 72.3359 33.4875C72.5503 33.7739 72.8652 33.7169 73.1014 33.6742C74.175 33.3174 75.1129 32.6599 75.9579 31.9379C76.7384 31.3089 77.5331 30.7586 78.1134 29.922C78.3069 29.6431 78.6217 29.5861 78.8437 29.4646C79.0011 29.4362 79.0798 29.4219 79.0941 29.5006C79.1083 29.5794 79.1226 29.6581 79.0581 29.7511C77.5038 31.4956 75.9638 33.3189 73.7664 34.2043C73.6089 34.2328 73.4515 34.2613 73.387 34.3542ZM69.5117 30.9091C69.9053 30.8379 69.9129 30.43 70.1205 30.2299C70.7938 29.4577 71.1095 28.5063 71.5181 27.6193C71.5826 27.5264 71.6328 27.3547 71.4611 27.3045C71.3682 27.24 71.3037 27.3329 71.2392 27.4259C70.5802 28.2768 69.8927 28.9703 69.4983 29.9359C69.3693 30.1219 69.3333 30.3723 69.2973 30.6227C69.2471 30.7944 69.3543 30.9376 69.5117 30.9091ZM56.3987 92.2231C55.8334 92.2441 55.2823 92.3438 54.7957 92.3505C52.4701 92.5274 51.1903 91.2955 51.2496 88.9272C51.3299 87.1241 51.8465 85.4859 52.6923 83.8695C54.1903 80.9156 55.9672 78.1552 58.209 75.7171C60.7874 72.893 63.7519 70.4055 66.7164 67.918C68.7715 66.2454 71.0125 64.7018 73.2677 63.2369C73.6328 63.0082 73.905 62.7151 73.9125 62.3072C74.1577 60.0678 74.4817 57.8141 74.5695 55.6032C74.6272 55.0236 74.6062 54.4583 74.5065 53.9073C74.4781 53.7498 74.3566 53.5279 74.5928 53.4852C74.8289 53.4424 74.9361 53.5856 74.9646 53.7431C75.143 54.2799 75.2427 54.8309 75.2495 55.3175C75.1475 57.4498 74.9525 59.5175 74.6 61.6137C74.6285 61.7712 74.4351 62.0501 74.6997 62.1648C74.8856 62.2937 75.0933 62.0936 75.2508 62.0651C77.8854 60.4503 80.5342 58.9141 83.1973 57.4567C83.276 57.4425 83.3405 57.3495 83.4979 57.3211C83.6554 57.2926 83.7483 57.357 83.8556 57.5002C83.9628 57.6434 83.8196 57.7507 83.7551 57.8436C83.4687 58.058 83.261 58.2582 83.0248 58.3009C80.3835 59.4292 78.078 61.0658 75.6511 62.4804C74.606 62.9947 74.3405 63.7744 74.1966 64.7761C73.8149 67.6093 73.1828 70.4065 72.2215 73.182C71.4755 75.3494 70.6507 77.5311 69.64 79.5838C68.5648 81.7295 67.3967 83.8107 65.9354 85.6198C64.1375 87.8149 62.1109 89.645 59.684 91.0596C58.6389 91.5739 57.5795 92.0095 56.3987 92.2231ZM56.0628 91.7148C56.943 91.6368 57.716 91.4157 58.4747 91.1158C60.2786 90.3017 61.7751 89.1366 63.2288 87.7354C64.9045 86.2128 66.2871 84.418 67.405 82.5085C69.8845 78.2388 71.7559 73.754 72.8477 69.0038C73.2068 67.3941 73.5015 65.8774 73.689 64.2175C73.7535 64.1245 73.8037 63.9529 73.6178 63.8239C73.4319 63.6949 73.3029 63.8809 73.1597 63.9881C71.0477 65.3458 69.0429 66.8467 66.9736 68.4405C64.4102 70.449 62.047 72.6651 59.698 74.96C58.1798 76.4541 56.8759 78.2347 55.5721 80.0153C54.7339 81.2238 54.0028 82.5755 53.2718 83.9273C52.4118 85.4649 51.8952 87.1031 51.722 88.8417C51.5127 90.8307 52.4349 91.8834 54.3954 91.9352C54.9749 91.9929 55.5117 91.8145 56.0628 91.7148ZM93.9706 44.2071C94.1925 44.0857 94.3784 44.2146 94.4211 44.4508C94.5426 44.6727 94.3064 44.7154 94.0845 44.8369C89.7255 46.3572 85.3523 47.7988 81.0076 49.3978C78.4165 50.3544 75.9326 51.4542 73.3557 52.4895C69.4976 54.0818 65.7609 55.896 62.1314 57.8535C57.6 60.218 53.1615 62.647 48.8729 65.4553C48.064 65.9269 47.348 66.4629 46.4318 66.7913C46.3673 66.8842 46.2241 66.9914 46.1169 66.8482C46.0097 66.705 46.2316 66.5836 46.2961 66.4906C46.5825 66.2762 46.9334 65.9688 47.2985 65.7402C50.1408 63.9252 52.9973 62.1889 55.961 60.5958C59.5118 58.6526 63.0626 56.7094 66.6419 54.9237C70.536 53.0809 74.5374 51.3814 78.5672 49.8394C82.8047 48.0971 87.2567 46.6413 91.5369 45.1352C92.3744 44.8211 93.1331 44.5212 93.9706 44.2071ZM77.5259 73.1166C77.1046 72.1359 77.6564 71.1418 77.8004 70.1402C78.1821 67.307 78.9214 64.6529 79.9111 62.0349C80.3917 60.6472 81.0583 59.3884 81.6318 58.0652C82.7933 55.4974 84.0476 52.9941 85.2878 50.412C86.5421 47.9087 87.954 45.3769 89.38 42.9239C90.4334 41.1073 91.4869 39.2907 92.712 37.5244C93.2923 36.6877 93.7939 35.8653 94.4814 35.1718C94.6104 34.9859 94.818 34.7857 95.0257 34.5856C95.4553 34.2639 95.8489 34.1927 96.2995 34.4364C96.6714 34.6943 96.7426 35.0879 96.7351 35.4958C96.6908 37.0485 96.2244 38.5149 95.6793 39.9956C95.1627 41.6338 94.5531 43.2074 93.7719 44.7308C93.1338 46.1471 92.51 47.642 91.7002 49.008C91.1342 49.9234 90.6753 50.982 90.1377 52.0548C89.3564 53.5783 88.4965 55.1159 87.7294 56.7181C85.966 60.4517 83.6589 63.8771 81.4449 67.367C80.5564 68.7473 79.6537 70.0488 78.5935 71.3788C78.1279 71.9508 78.0552 73.346 78.4982 73.9976C78.8056 74.3484 79.1348 74.3702 79.5141 74.2203C80.2084 74.0134 80.7669 73.5058 81.2468 73.0125C82.4141 71.8257 83.4885 70.5744 84.6417 69.3089C84.7062 69.216 84.8209 68.9513 85.0068 69.0803C85.1927 69.2092 84.985 69.4094 84.8418 69.5166C83.6887 70.7821 82.7215 72.1766 81.6614 73.5066C81.1815 73.9999 80.6874 74.4145 80.0862 74.6859C78.8048 75.2429 77.8894 74.6768 77.5259 73.1166ZM96.0986 35.1231C96.0274 34.7295 95.684 34.6291 95.3331 34.9364C94.3449 35.7656 93.8073 36.8384 93.1626 37.7681C91.8872 39.7061 90.6906 41.6299 89.5727 43.5394C88.4833 45.6064 87.3009 47.6089 86.2115 49.6758C85.0216 52.0862 83.8459 54.5752 82.749 57.0501C81.6018 59.6966 80.3759 62.3573 79.5721 65.1043C79.1845 66.5565 78.8755 67.9945 78.5666 69.4325C78.5164 69.6041 78.4017 69.8688 78.6663 69.9835C78.9167 70.0195 78.9527 69.7691 79.0817 69.5832C80.321 67.8956 81.4532 66.0648 82.5853 64.234C84.5197 61.445 86.0965 58.4769 87.752 55.4945C88.7769 53.5205 89.7876 51.4678 90.8913 49.4795C92.762 45.8891 94.4609 42.2485 95.6306 38.3784C95.9321 37.3483 96.1405 36.2537 96.0986 35.1231ZM86.0893 71.486C85.5382 71.5857 84.7442 71.2416 84.5013 70.7977C84.2727 70.4326 84.2592 69.4594 84.5171 69.0876C84.6461 68.9016 84.868 68.7802 85.054 68.9092C85.3186 69.0239 85.1896 69.2098 85.1394 69.3815C84.9745 69.8178 84.7593 70.4258 85.3028 70.734C85.8464 71.0422 86.2617 70.6418 86.6913 70.3202C86.9777 70.1058 87.1712 69.8269 87.3788 69.6267C87.5865 69.4265 87.558 69.2691 87.2289 69.2473C86.7566 69.3328 86.2415 69.1821 86.0773 68.724C85.9132 68.2659 86.3285 67.8656 86.6652 67.4795C87.4959 66.6788 88.4188 66.837 88.9976 67.7892C89.119 68.0111 89.2405 68.233 89.4766 68.1903C90.4498 68.1768 91.4589 67.913 92.4823 67.7278C92.7972 67.6708 93.1766 67.5209 93.5702 67.4497C93.6489 67.4354 93.8708 67.314 93.9135 67.5502C93.942 67.7076 93.7846 67.7361 93.6414 67.8433C92.1742 68.2714 90.8141 68.8426 89.4189 68.7698C89.011 68.7623 88.7389 69.0555 88.5597 69.4131C88.1226 70.1426 87.564 70.6501 86.9125 71.0932C86.6261 71.3076 86.4041 71.429 86.0893 71.486ZM105.311 65.7321C104.473 66.0462 103.65 66.439 102.813 66.7531C102.354 66.9173 101.989 67.146 101.517 67.2314C100.73 67.3738 100.264 67.9459 99.8916 68.5824C99.4972 69.548 99.1103 70.1058 98.2368 70.6703C97.8717 70.899 97.4136 71.0632 96.9128 70.9912C96.3978 70.8405 95.9614 70.6755 95.8475 70.0457C95.7905 69.7308 95.6833 69.5876 95.4111 69.8808C95.2822 70.0667 95.0745 70.2669 94.9313 70.3741C94.3727 70.8816 93.8719 70.8096 93.3141 70.4228C93.1282 70.2938 93.0068 70.0719 93.0428 69.8215C93.165 69.149 93.1942 68.412 93.4739 67.711C93.5886 67.4464 93.7033 67.1817 94.061 67.3609C94.4186 67.5401 94.4471 67.6975 94.3466 68.0409C94.1029 68.4915 94.1096 68.9781 94.0234 69.4002C93.9732 69.5718 93.9087 69.6648 94.0804 69.715C94.1733 69.7795 94.2378 69.6866 94.3023 69.5936C94.9396 69.0718 95.4839 68.4855 95.8708 67.9277C96.0642 67.6489 96.2861 67.5274 96.565 67.7208C96.9084 67.8213 96.9511 68.0575 96.8364 68.3221C96.607 68.8514 96.7067 69.4025 96.7921 69.8748C96.8491 70.1897 97.035 70.3187 97.2427 70.1185C98.3381 69.4325 98.9611 68.832 99.4702 67.6017C99.5062 67.3513 99.399 67.2081 99.2273 67.1579C98.8555 66.9 98.6411 66.6136 98.6486 66.2057C98.6561 65.7979 99.007 65.4905 99.4291 65.5767C99.8512 65.6629 100.273 65.7492 100.516 66.193C100.68 66.6511 101.009 66.6729 101.389 66.5229C102.62 66.1376 103.837 65.6736 105.003 65.3812C105.082 65.367 105.161 65.3527 105.239 65.3385C105.397 65.31 105.776 65.16 105.833 65.4749C105.89 65.7898 105.468 65.7036 105.311 65.7321ZM115.676 63.5316C113.864 64.7536 111.96 65.9112 110.027 66.9112C109.268 67.2111 108.603 67.5754 107.844 67.8753C107.15 68.0822 106.491 68.0387 105.805 67.8378C105.132 67.7155 104.875 67.193 104.682 66.5774C104.654 66.42 104.704 66.2483 104.769 66.1553C105.206 65.4259 105.722 64.6822 106.438 64.1461C106.917 63.6528 107.561 63.6176 107.976 64.1117C108.298 64.5413 108.226 65.0421 107.746 65.5354C107.252 65.95 106.665 66.3001 106.078 66.6502C105.92 66.6787 105.684 66.7214 105.713 66.8789C105.755 67.115 105.941 67.244 106.113 67.2942C106.628 67.4449 107.179 67.3452 107.637 67.1811C109.09 66.6743 110.422 65.9456 111.832 65.2027C112.877 64.6884 113.987 64.0811 115.032 63.5668C115.254 63.4454 115.411 63.4169 115.662 63.4529L115.676 63.5316ZM118.716 66.8026C118.072 66.8378 117.493 66.7801 117.078 66.286C116.649 65.7132 116.879 65.1839 117.187 64.6403C117.43 64.1898 117.66 63.6605 117.982 63.1956C118.032 63.024 118.097 62.931 117.99 62.7878C117.818 62.7376 117.754 62.8305 117.689 62.9235C116.945 63.3021 116.2 63.6807 115.441 63.9805C115.141 64.1162 114.905 64.159 114.575 64.1372C113.824 64.0292 113.596 63.6641 113.875 62.9631C114.435 61.5611 115.273 60.3526 116.283 59.1943C116.347 59.1013 116.49 58.9941 116.555 58.9012C116.841 58.6867 117.092 58.7227 117.449 58.9019C117.714 59.0166 117.692 59.3458 117.656 59.5962C117.469 60.3617 117.19 61.0626 116.91 61.7636C116.86 61.9353 116.652 62.1355 116.838 62.2644C116.945 62.4076 117.167 62.2862 117.31 62.179C117.833 61.9218 118.341 61.586 118.864 61.3288C119.165 61.1932 119.479 61.1362 119.694 61.4226C119.987 61.6947 119.779 61.8949 119.586 62.1738C118.862 63.1177 118.246 64.2048 117.787 65.2634C117.672 65.528 117.544 65.714 117.665 65.9359C117.879 66.2223 118.194 66.1653 118.43 66.1226C119.504 65.7658 120.442 65.1083 121.287 64.3863C122.067 63.7573 122.862 63.207 123.442 62.3704C123.636 62.0915 123.951 62.0345 124.173 61.913C124.33 61.8846 124.409 61.8703 124.423 61.949C124.437 62.0278 124.452 62.1065 124.387 62.1994C122.833 63.944 121.293 65.7673 119.095 66.6527C118.938 66.6812 118.781 66.7096 118.716 66.8026ZM114.841 63.3575C115.234 63.2863 115.242 62.8784 115.45 62.6783C116.123 61.9061 116.439 60.9547 116.847 60.0677C116.912 59.9748 116.962 59.8031 116.79 59.7528C116.697 59.6884 116.633 59.7813 116.568 59.8743C115.909 60.7252 115.222 61.4187 114.827 62.3843C114.698 62.5703 114.662 62.8207 114.626 63.0711C114.576 63.2428 114.683 63.386 114.841 63.3575Z" fill="#1F3A3A"/>
</svg>
