<svg width="16" height="17" viewBox="0 0 16 17" fill="none" xmlns="http://www.w3.org/2000/svg">
<circle cx="8" cy="8.86523" r="8" fill="#43FFD2"/>
<path d="M7.916 14.096C7.076 14.096 6.472 13.86 6.104 13.388C5.744 12.908 5.564 12.204 5.564 11.276H6.848C6.848 11.82 6.92 12.256 7.064 12.584C7.216 12.912 7.508 13.076 7.94 13.076C8.268 13.076 8.512 12.98 8.672 12.788C8.832 12.596 8.932 12.344 8.972 12.032C9.02 11.712 9.044 11.288 9.044 10.76C9.044 10.272 9.016 9.884 8.96 9.596C8.912 9.3 8.808 9.076 8.648 8.924C8.496 8.764 8.264 8.684 7.952 8.684C7.704 8.684 7.484 8.76 7.292 8.912C7.108 9.064 6.968 9.256 6.872 9.488H5.78V4.28H9.968V5.564H6.944L6.86 8.252C7.204 7.892 7.672 7.712 8.264 7.712C9.008 7.712 9.536 7.968 9.848 8.48C10.168 8.984 10.328 9.688 10.328 10.592C10.328 11.696 10.148 12.556 9.788 13.172C9.428 13.788 8.804 14.096 7.916 14.096Z" fill="#142B2B"/>
</svg>
